<svg width="47" height="47" viewBox="0 0 47 47" fill="none" xmlns="http://www.w3.org/2000/svg">
<path d="M19.5833 29.375H13.7083C9.3821 29.375 5.875 32.8821 5.875 37.2083V39.1667" stroke="white" stroke-width="1.5" stroke-linecap="round" stroke-linejoin="round"/>
<path d="M39.1665 41.125H27.4165" stroke="white" stroke-width="1.5" stroke-linecap="round" stroke-linejoin="round"/>
<path fill-rule="evenodd" clip-rule="evenodd" d="M27.9901 30.0299L33.9464 24.0736C34.3136 23.7063 34.8118 23.5 35.3311 23.5C35.8505 23.5 36.3486 23.7063 36.7159 24.0736L38.5929 25.9507C39.3577 26.7154 39.3577 27.9554 38.5929 28.7202L32.6366 34.6764C32.2694 35.0437 31.7712 35.25 31.2518 35.25H28.3957C27.8549 35.25 27.4165 34.8116 27.4165 34.2708V31.4146C27.4165 30.8953 27.6228 30.3972 27.9901 30.0299Z" stroke="white" stroke-width="1.5" stroke-linecap="round" stroke-linejoin="round"/>
<circle cx="21.5418" cy="13.7083" r="7.83333" stroke="white" stroke-width="1.5" stroke-linecap="round" stroke-linejoin="round"/>
</svg>
