<svg width="51" height="24" viewBox="0 0 51 24" fill="none" xmlns="http://www.w3.org/2000/svg">
<path d="M25.1717 17.5023C24.5945 17.5023 24.1222 17.7274 24.1285 18.0025C24.1285 18.2776 24.6008 18.5027 25.178 18.5027C25.7552 18.5027 26.2275 18.2776 26.2275 18.0025C26.2275 17.7274 25.7552 17.5023 25.1717 17.5023" stroke="#949BA5" stroke-width="1.5" stroke-linecap="round" stroke-linejoin="round"/>
<path d="M25.1717 11.4998C24.5945 11.4998 24.1222 11.7249 24.1285 12C24.1285 12.2751 24.6008 12.5002 25.178 12.5002C25.7552 12.5002 26.2275 12.2751 26.2275 12C26.2275 11.7249 25.7552 11.4998 25.1717 11.4998" stroke="#949BA5" stroke-width="1.5" stroke-linecap="round" stroke-linejoin="round"/>
<path d="M25.1717 5.4973C24.5945 5.4973 24.1222 5.72239 24.1285 5.99751C24.1285 6.27262 24.6008 6.49772 25.178 6.49772C25.7552 6.49772 26.2275 6.27262 26.2275 5.99751C26.2275 5.72239 25.7552 5.4973 25.1717 5.4973" stroke="#949BA5" stroke-width="1.5" stroke-linecap="round" stroke-linejoin="round"/>
</svg>
